<?xml version="1.0" encoding="utf-8"?>
<!-- Generator: Adobe Illustrator 28.0.0, SVG Export Plug-In . SVG Version: 6.00 Build 0)  -->
<svg version="1.1" id="Layer_1" xmlns="http://www.w3.org/2000/svg" xmlns:xlink="http://www.w3.org/1999/xlink" x="0px" y="0px"
	 viewBox="0 0 209.75 209.76" style="enable-background:new 0 0 209.75 209.76;" xml:space="preserve">
<style type="text/css">
	.st0{fill:#006D68;}
	.st1{fill:#FFFFFF;}
	.st2{fill:#AECC53;}
</style>
<g>
	<g>
		<g>
			<path class="st0" d="M180.39,104.88c0-41.71-33.81-75.51-75.51-75.51c-41.7,0-75.51,33.81-75.51,75.51s33.81,75.51,75.51,75.51
				c2.48,0,75.27-0.36,75.27-0.36S180.39,106.81,180.39,104.88z"/>
		</g>
	</g>
	<g>
		<rect x="63.37" y="61.38" class="st2" width="39" height="39"/>
	</g>
	<g>
		<circle class="st0" cx="82.87" cy="80.88" r="11.91"/>
	</g>
	<g>
		<polygon class="st1" points="133.58,107.08 122.09,98.26 125.74,93.5 132.49,98.68 141.46,87.05 146.21,90.71 		"/>
	</g>
	<path class="st1" d="M114.37,76.38v36h-36v39h36h3h36v-36v-3v-36H114.37z M114.26,148.26H81.49V115.5h32.77V148.26z M117.49,79.5
		h32.77v32.77h-32.77V79.5z M150.26,148.26h-32.77V115.5h32.77V148.26z"/>
	<polygon class="st1" points="108.87,129.38 100.37,129.38 100.37,120.88 95.37,120.88 95.37,129.38 86.87,129.38 86.87,134.38 
		95.37,134.38 95.37,142.88 100.37,142.88 100.37,134.38 108.87,134.38 	"/>
</g>
</svg>
